<svg width="101" height="25" xmlns="http://www.w3.org/2000/svg"><path d="M38.923 0c.871 0 1.577.699 1.577 1.561l-.014 21.397c0 .832-.643 1.515-1.464 1.589l-.147.006c-.889 0-1.61-.714-1.61-1.595v-.655c-1.95 1.78-3.668 2.682-6.24 2.682-2.617 0-4.78-.902-6.492-2.708-1.71-1.805-2.566-4.025-2.566-6.661 0-2.592.855-4.79 2.566-6.595 1.711-1.806 3.852-2.708 6.425-2.708 2.572 0 4.33.858 6.307 2.66l.014-7.412A1.57 1.57 0 0 1 38.856 0h.067ZM12.616 1.03l9.379 21.23c.487 1.098-.287 2.293-1.598 2.293h-.01c-.763 0-1.448-.422-1.726-1.063L11.084 5.78l-3.893 9.16h-.207c-1.809 0-2.89-1.336-2.212-2.997L9.54 1.037c.582-1.332 2.488-1.336 3.076-.006ZM5.802 18.386 3.47 23.49c-.277.641-.962 1.063-1.725 1.063-1.314 0-2.088-1.2-1.595-2.299l.974-2.173c.39-.954 1.35-1.696 2.39-1.696h2.288Zm25.37-8.952c-1.778 0-3.214.601-4.309 1.804-1.095 1.202-1.642 2.662-1.642 4.38 0 1.76.547 3.242 1.642 4.444 1.095 1.203 2.531 1.804 4.31 1.804 1.777 0 3.213-.601 4.308-1.804 1.095-1.202 1.643-2.683 1.643-4.444 0-1.718-.548-3.178-1.643-4.38-1.095-1.203-2.531-1.804-4.309-1.804Zm-20.101 4.933a2.309 2.309 0 0 1 2.32 2.297 2.309 2.309 0 0 1-2.32 2.298 2.309 2.309 0 0 1-2.32-2.298 2.309 2.309 0 0 1 2.32-2.297Zm41.494 7.971a1.416 1.416 0 0 1-.657 1.903c-1.041.497-2.233.745-3.574.745-1.901 0-3.333-.581-4.294-1.744-.962-1.163-1.443-2.808-1.443-4.934V9.469l.034-2.724.002-5.149A1.57 1.57 0 0 1 44.21.035c.87 0 1.577.699 1.577 1.561l-.003 5.149h4.511c.76 0 1.376.61 1.376 1.362 0 .752-.616 1.362-1.376 1.362h-4.51v9.07c0 2.349.972 3.522 2.918 3.522.66 0 1.337-.14 2.033-.423a1.44 1.44 0 0 1 1.829.699M72.647 6.313c2.55 0 4.454.912 6.34 2.66v-.7c0-.797.617-1.452 1.403-1.522l.14-.006c.853 0 1.544.684 1.544 1.528v14.752c0 .844-.691 1.528-1.543 1.528a1.536 1.536 0 0 1-1.543-1.528v-.755c-1.645 1.708-3.724 2.715-6.341 2.715-2.573 0-4.714-.908-6.425-2.724-1.71-1.816-2.566-4.065-2.566-6.745 0-2.658.85-4.856 2.55-6.595 1.699-1.739 3.846-2.608 6.44-2.608ZM62.47 6.279c.179 0 .357.006.534.017a1.538 1.538 0 0 1 1.448 1.534l-.008.142A1.54 1.54 0 0 1 62.8 9.35a5.632 5.632 0 0 0-.395-.014c-1.431 0-2.49.488-3.417 1.462-.929.975-1.515 2.535-1.515 4.44v7.72c0 .832-.643 1.515-1.463 1.589l-.147.006c-.89 0-1.61-.714-1.61-1.595V8.256c0-.788.61-1.436 1.387-1.505l.14-.006a1.52 1.52 0 0 1 1.526 1.511v.751c1-1.596 2.88-2.728 5.166-2.728Zm10.362 3.15c-1.78 0-3.211.601-4.296 1.804-1.085 1.204-1.627 2.675-1.627 4.416 0 1.74.542 3.212 1.627 4.415 1.085 1.204 2.517 1.805 4.296 1.805 1.779 0 3.222-.601 4.328-1.805 1.107-1.203 1.66-2.685 1.66-4.447 0-1.72-.553-3.18-1.66-4.384-1.106-1.203-2.55-1.804-4.328-1.804Zm11.25 13.596V8.273c0-.844.691-1.528 1.544-1.528h.067c.852 0 1.543.684 1.543 1.528v.634c1.359-1.71 3.042-2.628 5.703-2.628 2.013 0 3.702.643 5.066 1.927 1.364 1.285 2.047 3.135 2.047 5.55v9.269c0 .844-.691 1.528-1.543 1.528h-.101a1.536 1.536 0 0 1-1.543-1.528v-8.373c0-1.728-.425-3.062-1.275-4.004-.85-.94-1.836-1.411-3.2-1.411-1.454 0-2.645.51-3.573 1.528-.928 1.019-1.514 2.446-1.514 4.041v8.219c0 .844-.69 1.528-1.543 1.528h-.134a1.536 1.536 0 0 1-1.543-1.528" fill="#FFF" fill-rule="evenodd"/></svg>
